  0
SECTION
  2
HEADER
  9
$ACADVER
  1
AC1014
  9
$HANDSEED
  5
FFFF
  9
$MEASUREMENT
 70
     1
  0
ENDSEC
  0
SECTION
  2
TABLES
  0
TABLE
  2
VPORT
  5
8
330
0
100
AcDbSymbolTable
 70
     4
  0
VPORT
  5
2E
330
8
100
AcDbSymbolTableRecord
100
AcDbViewportTableRecord
  2
*ACTIVE
 70
     0
 10
0.0
 20
0.0
 11
1.0
 21
1.0
 12
210.0
 22
148.5
 13
0.0
 23
0.0
 14
10.0
 24
10.0
 15
10.0
 25
10.0
 16
0.0
 26
0.0
 36
1.0
 17
0.0
 27
0.0
 37
0.0
 40
341.0
 41
1.24
 42
50.0
 43
0.0
 44
0.0
 50
0.0
 51
0.0
 71
     0
 72
   100
 73
     1
 74
     3
 75
     0
 76
     0
 77
     0
 78
     0
  0
ENDTAB
  0
TABLE
  2
LTYPE
  5
5
330
0
100
AcDbSymbolTable
 70
     1
  0
LTYPE
  5
14
330
5
100
AcDbSymbolTableRecord
100
AcDbLinetypeTableRecord
  2
BYBLOCK
 70
     0
  3

 72
    65
 73
     0
 40
0.0
  0
LTYPE
  5
15
330
5
100
AcDbSymbolTableRecord
100
AcDbLinetypeTableRecord
  2
BYLAYER
 70
     0
  3

 72
    65
 73
     0
 40
0.0
  0
LTYPE
  5
16
330
5
100
AcDbSymbolTableRecord
100
AcDbLinetypeTableRecord
  2
CONTINUOUS
 70
     0
  3
Solid line
 72
    65
 73
     0
 40
0.0
  0
ENDTAB
  0
TABLE
  2
LAYER
  5
2
100
AcDbSymbolTable
 70
2
  0
LAYER
  5
50
100
AcDbSymbolTableRecord
100
AcDbLayerTableRecord
  2
0
 70
0
  6
CONTINUOUS
  0
LAYER
  5
51
100
AcDbSymbolTableRecord
100
AcDbLayerTableRecord
  2
Layer_1
 70
0
  6
CONTINUOUS
  0
ENDTAB
  0
TABLE
  2
STYLE
  5
3
330
0
100
AcDbSymbolTable
 70
     1
  0
STYLE
  5
11
330
3
100
AcDbSymbolTableRecord
100
AcDbTextStyleTableRecord
  2
STANDARD
 70
     0
 40
0.0
 41
1.0
 50
0.0
 71
     0
 42
2.5
  3
txt
  4

  0
ENDTAB
  0
TABLE
  2
VIEW
  5
6
330
0
100
AcDbSymbolTable
 70
     0
  0
ENDTAB
  0
TABLE
  2
UCS
  5
7
330
0
100
AcDbSymbolTable
 70
     0
  0
ENDTAB
  0
TABLE
  2
APPID
  5
9
330
0
100
AcDbSymbolTable
 70
     2
  0
APPID
  5
12
330
9
100
AcDbSymbolTableRecord
100
AcDbRegAppTableRecord
  2
ACAD
 70
     0
  0
ENDTAB
  0
TABLE
  2
DIMSTYLE
  5
A
330
0
100
AcDbSymbolTable
 70
     1
  0
DIMSTYLE
105
27
330
A
100
AcDbSymbolTableRecord
100
AcDbDimStyleTableRecord
  2
ISO-25
 70
     0
  3

  4

  5

  6

  7

 40
1.0
 41
2.5
 42
0.625
 43
3.75
 44
1.25
 45
0.0
 46
0.0
 47
0.0
 48
0.0
140
2.5
141
2.5
142
0.0
143
0.03937007874016
144
1.0
145
0.0
146
1.0
147
0.625
 71
     0
 72
     0
 73
     0
 74
     0
 75
     0
 76
     0
 77
     1
 78
     8
170
     0
171
     3
172
     1
173
     0
174
     0
175
     0
176
     0
177
     0
178
     0
270
     2
271
     2
272
     2
273
     2
274
     3
340
11
275
     0
280
     0
281
     0
282
     0
283
     0
284
     8
285
     0
286
     0
287
     3
288
     0
  0
ENDTAB
  0
TABLE
  2
BLOCK_RECORD
  5
1
330
0
100
AcDbSymbolTable
 70
     1
  0
BLOCK_RECORD
  5
1F
330
1
100
AcDbSymbolTableRecord
100
AcDbBlockTableRecord
  2
*MODEL_SPACE
  0
BLOCK_RECORD
  5
1B
330
1
100
AcDbSymbolTableRecord
100
AcDbBlockTableRecord
  2
*PAPER_SPACE
  0
ENDTAB
  0
ENDSEC
  0
SECTION
  2
BLOCKS
  0
BLOCK
  5
20
330
1F
100
AcDbEntity
  8
0
100
AcDbBlockBegin
  2
*MODEL_SPACE
 70
     0
 10
0.0
 20
0.0
 30
0.0
  3
*MODEL_SPACE
  1

  0
ENDBLK
  5
21
330
1F
100
AcDbEntity
  8
0
100
AcDbBlockEnd
  0
BLOCK
  5
1C
330
1B
100
AcDbEntity
 67
     1
  8
0
100
AcDbBlockBegin
  2
*PAPER_SPACE
  1

  0
ENDBLK
  5
1D
330
1B
100
AcDbEntity
 67
     1
  8
0
100
AcDbBlockEnd
  0
ENDSEC
  0
SECTION
  2
ENTITIES
  0
LWPOLYLINE
  5
100
100
AcDbEntity
  8
Layer_1
 62
7
100
AcDbPolyline
 90
9
 70
0
 10
43.494462
 20
19.244462
 30
0.0
 10
43.494462
 20
18.184232
 30
0.0
 10
42.000000
 20
18.184232
 30
0.0
 10
42.000000
 20
18.060057
 30
0.0
 10
43.494462
 20
18.060057
 30
0.0
 10
43.494462
 20
15.005538
 30
0.0
 10
40.505538
 20
15.005538
 30
0.0
 10
40.505538
 20
19.244462
 30
0.0
 10
43.494462
 20
19.244462
 30
0.0
  0
LWPOLYLINE
  5
101
100
AcDbEntity
  8
Layer_1
 62
7
100
AcDbPolyline
 90
5
 70
0
 10
0.506852
 20
14.868149
 30
0.0
 10
25.618148
 20
14.868149
 30
0.0
 10
25.618148
 20
10.506852
 30
0.0
 10
0.506852
 20
10.506852
 30
0.0
 10
0.506852
 20
14.868149
 30
0.0
  0
LWPOLYLINE
  5
102
100
AcDbEntity
  8
Layer_1
 62
7
100
AcDbPolyline
 90
5
 70
0
 10
0.500000
 20
14.875000
 30
0.0
 10
0.625000
 20
14.875000
 30
0.0
 10
0.625000
 20
10.500000
 30
0.0
 10
0.500000
 20
10.500000
 30
0.0
 10
0.500000
 20
14.875000
 30
0.0
  0
LWPOLYLINE
  5
103
100
AcDbEntity
  8
Layer_1
 62
7
100
AcDbPolyline
 90
5
 70
0
 10
25.500000
 20
14.875000
 30
0.0
 10
25.625000
 20
14.875000
 30
0.0
 10
25.625000
 20
10.500000
 30
0.0
 10
25.500000
 20
10.500000
 30
0.0
 10
25.500000
 20
14.875000
 30
0.0
  0
LWPOLYLINE
  5
104
100
AcDbEntity
  8
Layer_1
 62
7
100
AcDbPolyline
 90
5
 70
0
 10
0.500000
 20
10.625000
 30
0.0
 10
25.625000
 20
10.625000
 30
0.0
 10
25.625000
 20
10.500000
 30
0.0
 10
0.500000
 20
10.500000
 30
0.0
 10
0.500000
 20
10.625000
 30
0.0
  0
LWPOLYLINE
  5
105
100
AcDbEntity
  8
Layer_1
 62
7
100
AcDbPolyline
 90
5
 70
0
 10
0.500000
 20
14.875000
 30
0.0
 10
25.625000
 20
14.875000
 30
0.0
 10
25.625000
 20
14.750000
 30
0.0
 10
0.500000
 20
14.750000
 30
0.0
 10
0.500000
 20
14.875000
 30
0.0
  0
LWPOLYLINE
  5
106
100
AcDbEntity
  8
Layer_1
 62
7
100
AcDbPolyline
 90
33
 70
0
 10
0.505648
 20
19.056847
 30
0.0
 10
3.562492
 20
19.056847
 30
0.0
 10
3.562492
 20
17.568017
 30
0.0
 10
3.687493
 20
17.568017
 30
0.0
 10
3.687493
 20
19.056847
 30
0.0
 10
6.687495
 20
19.056847
 30
0.0
 10
6.686995
 20
17.568017
 30
0.0
 10
6.812495
 20
17.568017
 30
0.0
 10
6.812495
 20
19.056847
 30
0.0
 10
9.812498
 20
19.056847
 30
0.0
 10
9.812498
 20
17.568017
 30
0.0
 10
9.937498
 20
17.568017
 30
0.0
 10
9.937498
 20
19.056847
 30
0.0
 10
12.937501
 20
19.056847
 30
0.0
 10
12.937501
 20
17.568017
 30
0.0
 10
13.062501
 20
17.568017
 30
0.0
 10
13.062001
 20
19.056847
 30
0.0
 10
16.062503
 20
19.056847
 30
0.0
 10
16.062503
 20
17.567846
 30
0.0
 10
16.187503
 20
17.568016
 30
0.0
 10
16.187503
 20
19.056676
 30
0.0
 10
19.187506
 20
19.056765
 30
0.0
 10
19.187506
 20
17.568020
 30
0.0
 10
19.312506
 20
17.568020
 30
0.0
 10
19.312506
 20
19.056808
 30
0.0
 10
22.312508
 20
19.056852
 30
0.0
 10
22.312508
 20
17.568022
 30
0.0
 10
22.437508
 20
17.568022
 30
0.0
 10
22.437508
 20
19.056852
 30
0.0
 10
25.494351
 20
19.056852
 30
0.0
 10
25.494351
 20
16.005648
 30
0.0
 10
0.505648
 20
16.005648
 30
0.0
 10
0.505648
 20
19.056847
 30
0.0
  0
LWPOLYLINE
  5
107
100
AcDbEntity
  8
Layer_1
 62
7
100
AcDbPolyline
 90
9
 70
0
 10
47.244462
 20
19.244462
 30
0.0
 10
47.244462
 20
18.184232
 30
0.0
 10
45.750000
 20
18.184232
 30
0.0
 10
45.750000
 20
18.060057
 30
0.0
 10
47.244462
 20
18.060057
 30
0.0
 10
47.244462
 20
15.005538
 30
0.0
 10
44.255538
 20
15.005538
 30
0.0
 10
44.255538
 20
19.244462
 30
0.0
 10
47.244462
 20
19.244462
 30
0.0
  0
LWPOLYLINE
  5
108
100
AcDbEntity
  8
Layer_1
 62
7
100
AcDbPolyline
 90
9
 70
0
 10
46.744462
 20
1.005538
 30
0.0
 10
45.684232
 20
1.005538
 30
0.0
 10
45.684232
 20
2.500000
 30
0.0
 10
45.560057
 20
2.500000
 30
0.0
 10
45.560057
 20
1.005538
 30
0.0
 10
42.505538
 20
1.005538
 30
0.0
 10
42.505538
 20
3.994462
 30
0.0
 10
46.744462
 20
3.994462
 30
0.0
 10
46.744462
 20
1.005538
 30
0.0
  0
LWPOLYLINE
  5
109
100
AcDbEntity
  8
Layer_1
 62
7
100
AcDbPolyline
 90
5
 70
0
 10
0.506792
 20
9.993208
 30
0.0
 10
25.618209
 20
9.993208
 30
0.0
 10
25.618209
 20
5.506792
 30
0.0
 10
0.506792
 20
5.506792
 30
0.0
 10
0.506792
 20
9.993208
 30
0.0
  0
LWPOLYLINE
  5
10a
100
AcDbEntity
  8
Layer_1
 62
7
100
AcDbPolyline
 90
5
 70
0
 10
0.501191
 20
9.998809
 30
0.0
 10
0.623809
 20
9.998809
 30
0.0
 10
0.623809
 20
5.501191
 30
0.0
 10
0.501191
 20
5.501191
 30
0.0
 10
0.501191
 20
9.998809
 30
0.0
  0
LWPOLYLINE
  5
10b
100
AcDbEntity
  8
Layer_1
 62
7
100
AcDbPolyline
 90
5
 70
0
 10
25.494192
 20
9.998809
 30
0.0
 10
25.616810
 20
9.998809
 30
0.0
 10
25.616810
 20
5.501191
 30
0.0
 10
25.494192
 20
5.501191
 30
0.0
 10
25.494192
 20
9.998809
 30
0.0
  0
LWPOLYLINE
  5
10c
100
AcDbEntity
  8
Layer_1
 62
7
100
AcDbPolyline
 90
5
 70
0
 10
3.625000
 20
10.000000
 30
0.0
 10
3.750000
 20
10.000000
 30
0.0
 10
3.750000
 20
5.500000
 30
0.0
 10
3.625000
 20
5.500000
 30
0.0
 10
3.625000
 20
10.000000
 30
0.0
  0
LWPOLYLINE
  5
10d
100
AcDbEntity
  8
Layer_1
 62
7
100
AcDbPolyline
 90
5
 70
0
 10
6.750000
 20
10.000000
 30
0.0
 10
6.875000
 20
10.000000
 30
0.0
 10
6.875000
 20
5.500000
 30
0.0
 10
6.750000
 20
5.500000
 30
0.0
 10
6.750000
 20
10.000000
 30
0.0
  0
LWPOLYLINE
  5
10e
100
AcDbEntity
  8
Layer_1
 62
7
100
AcDbPolyline
 90
5
 70
0
 10
9.875000
 20
10.000000
 30
0.0
 10
10.000000
 20
10.000000
 30
0.0
 10
10.000000
 20
5.500000
 30
0.0
 10
9.875000
 20
5.500000
 30
0.0
 10
9.875000
 20
10.000000
 30
0.0
  0
LWPOLYLINE
  5
10f
100
AcDbEntity
  8
Layer_1
 62
7
100
AcDbPolyline
 90
5
 70
0
 10
13.000000
 20
10.000000
 30
0.0
 10
13.125000
 20
10.000000
 30
0.0
 10
13.125000
 20
5.500000
 30
0.0
 10
13.000000
 20
5.500000
 30
0.0
 10
13.000000
 20
10.000000
 30
0.0
  0
LWPOLYLINE
  5
110
100
AcDbEntity
  8
Layer_1
 62
7
100
AcDbPolyline
 90
5
 70
0
 10
16.125000
 20
10.000000
 30
0.0
 10
16.250000
 20
10.000000
 30
0.0
 10
16.250000
 20
5.500000
 30
0.0
 10
16.125000
 20
5.500000
 30
0.0
 10
16.125000
 20
10.000000
 30
0.0
  0
LWPOLYLINE
  5
111
100
AcDbEntity
  8
Layer_1
 62
7
100
AcDbPolyline
 90
5
 70
0
 10
19.250000
 20
10.000000
 30
0.0
 10
19.375000
 20
10.000000
 30
0.0
 10
19.375000
 20
5.500000
 30
0.0
 10
19.250000
 20
5.500000
 30
0.0
 10
19.250000
 20
10.000000
 30
0.0
  0
LWPOLYLINE
  5
112
100
AcDbEntity
  8
Layer_1
 62
7
100
AcDbPolyline
 90
5
 70
0
 10
22.375000
 20
10.000000
 30
0.0
 10
22.500000
 20
10.000000
 30
0.0
 10
22.500000
 20
5.500000
 30
0.0
 10
22.375000
 20
5.500000
 30
0.0
 10
22.375000
 20
10.000000
 30
0.0
  0
LWPOLYLINE
  5
113
100
AcDbEntity
  8
Layer_1
 62
7
100
AcDbPolyline
 90
5
 70
0
 10
0.500000
 20
7.000000
 30
0.0
 10
25.500000
 20
7.000000
 30
0.0
 10
25.500000
 20
6.875000
 30
0.0
 10
0.500000
 20
6.875000
 30
0.0
 10
0.500000
 20
7.000000
 30
0.0
  0
SPLINE
  5
114
100
AcDbEntity
  8
Layer_1
 62
7
100
AcDbSpline
 70
8
 71
3
 72
8
 73
4
 74
0
 40
0
 40
0
 40
0
 40
0
 40
1
 40
1
 40
1
 40
1
 10
28.628335
 20
17.311508
 30
0.0
 10
28.765176
 20
17.311508
 30
0.0
 10
28.875974
 20
17.200586
 30
0.0
 10
28.875974
 20
17.063591
 30
0.0
  0
SPLINE
  5
115
100
AcDbEntity
  8
Layer_1
 62
7
100
AcDbSpline
 70
8
 71
3
 72
8
 73
4
 74
0
 40
0
 40
0
 40
0
 40
0
 40
1
 40
1
 40
1
 40
1
 10
28.875974
 20
17.063591
 30
0.0
 10
28.875974
 20
16.926596
 30
0.0
 10
28.765176
 20
16.815327
 30
0.0
 10
28.628335
 20
16.815327
 30
0.0
  0
SPLINE
  5
116
100
AcDbEntity
  8
Layer_1
 62
7
100
AcDbSpline
 70
8
 71
3
 72
8
 73
4
 74
0
 40
0
 40
0
 40
0
 40
0
 40
1
 40
1
 40
1
 40
1
 10
28.628335
 20
16.815327
 30
0.0
 10
28.491493
 20
16.815327
 30
0.0
 10
28.380696
 20
16.926596
 30
0.0
 10
28.380696
 20
17.063591
 30
0.0
  0
SPLINE
  5
117
100
AcDbEntity
  8
Layer_1
 62
7
100
AcDbSpline
 70
8
 71
3
 72
8
 73
4
 74
0
 40
0
 40
0
 40
0
 40
0
 40
1
 40
1
 40
1
 40
1
 10
28.380696
 20
17.063591
 30
0.0
 10
28.380696
 20
17.200586
 30
0.0
 10
28.491493
 20
17.311508
 30
0.0
 10
28.628335
 20
17.311508
 30
0.0
  0
LWPOLYLINE
  5
118
100
AcDbEntity
  8
Layer_1
 62
7
100
AcDbPolyline
 90
6
 70
0
 10
27.002382
 20
18.622620
 30
0.0
 10
27.002382
 20
15.502478
 30
0.0
 10
31.247618
 20
15.502478
 30
0.0
 10
31.247618
 20
18.622620
 30
0.0
 10
27.002382
 20
18.622620
 30
0.0
 10
27.002382
 20
18.622620
 30
0.0
  0
SPLINE
  5
119
100
AcDbEntity
  8
Layer_1
 62
7
100
AcDbSpline
 70
8
 71
3
 72
8
 73
4
 74
0
 40
0
 40
0
 40
0
 40
0
 40
1
 40
1
 40
1
 40
1
 10
30.635805
 20
17.311508
 30
0.0
 10
30.772646
 20
17.311508
 30
0.0
 10
30.883444
 20
17.200586
 30
0.0
 10
30.883444
 20
17.063591
 30
0.0
  0
SPLINE
  5
11a
100
AcDbEntity
  8
Layer_1
 62
7
100
AcDbSpline
 70
8
 71
3
 72
8
 73
4
 74
0
 40
0
 40
0
 40
0
 40
0
 40
1
 40
1
 40
1
 40
1
 10
30.883444
 20
17.063591
 30
0.0
 10
30.883444
 20
16.926596
 30
0.0
 10
30.772646
 20
16.815327
 30
0.0
 10
30.635805
 20
16.815327
 30
0.0
  0
SPLINE
  5
11b
100
AcDbEntity
  8
Layer_1
 62
7
100
AcDbSpline
 70
8
 71
3
 72
8
 73
4
 74
0
 40
0
 40
0
 40
0
 40
0
 40
1
 40
1
 40
1
 40
1
 10
30.635805
 20
16.815327
 30
0.0
 10
30.498963
 20
16.815327
 30
0.0
 10
30.388166
 20
16.926596
 30
0.0
 10
30.388166
 20
17.063591
 30
0.0
  0
SPLINE
  5
11c
100
AcDbEntity
  8
Layer_1
 62
7
100
AcDbSpline
 70
8
 71
3
 72
8
 73
4
 74
0
 40
0
 40
0
 40
0
 40
0
 40
1
 40
1
 40
1
 40
1
 10
30.388166
 20
17.063591
 30
0.0
 10
30.388166
 20
17.200586
 30
0.0
 10
30.498963
 20
17.311508
 30
0.0
 10
30.635805
 20
17.311508
 30
0.0
  0
LWPOLYLINE
  5
11d
100
AcDbEntity
  8
Layer_1
 62
7
100
AcDbPolyline
 90
2
 70
0
 10
28.628335
 20
17.311508
 30
0.0
 10
28.628335
 20
17.311508
 30
0.0
  0
LWPOLYLINE
  5
11e
100
AcDbEntity
  8
Layer_1
 62
7
100
AcDbPolyline
 90
2
 70
0
 10
30.635805
 20
17.311508
 30
0.0
 10
30.635805
 20
17.311508
 30
0.0
  0
LWPOLYLINE
  5
11f
100
AcDbEntity
  8
Layer_1
 62
7
100
AcDbPolyline
 90
5
 70
0
 10
29.999999
 20
18.625000
 30
0.0
 10
30.124999
 20
18.625000
 30
0.0
 10
30.124999
 20
15.500000
 30
0.0
 10
29.999999
 20
15.500000
 30
0.0
 10
29.999999
 20
18.625000
 30
0.0
  0
LWPOLYLINE
  5
120
100
AcDbEntity
  8
Layer_1
 62
7
100
AcDbPolyline
 90
9
 70
0
 10
43.494462
 20
14.244462
 30
0.0
 10
43.494462
 20
13.184232
 30
0.0
 10
42.000000
 20
13.184232
 30
0.0
 10
42.000000
 20
13.060057
 30
0.0
 10
43.494462
 20
13.060057
 30
0.0
 10
43.494462
 20
10.005538
 30
0.0
 10
40.505538
 20
10.005538
 30
0.0
 10
40.505538
 20
14.244462
 30
0.0
 10
43.494462
 20
14.244462
 30
0.0
  0
LWPOLYLINE
  5
121
100
AcDbEntity
  8
Layer_1
 62
7
100
AcDbPolyline
 90
9
 70
0
 10
47.244462
 20
14.244462
 30
0.0
 10
47.244462
 20
13.184232
 30
0.0
 10
45.750000
 20
13.184232
 30
0.0
 10
45.750000
 20
13.060057
 30
0.0
 10
47.244462
 20
13.060057
 30
0.0
 10
47.244462
 20
10.005538
 30
0.0
 10
44.255538
 20
10.005538
 30
0.0
 10
44.255538
 20
14.244462
 30
0.0
 10
47.244462
 20
14.244462
 30
0.0
  0
LWPOLYLINE
  5
122
100
AcDbEntity
  8
Layer_1
 62
7
100
AcDbPolyline
 90
9
 70
0
 10
43.494462
 20
9.244462
 30
0.0
 10
43.494462
 20
8.184232
 30
0.0
 10
42.000000
 20
8.184232
 30
0.0
 10
42.000000
 20
8.060057
 30
0.0
 10
43.494462
 20
8.060057
 30
0.0
 10
43.494462
 20
5.005538
 30
0.0
 10
40.505538
 20
5.005538
 30
0.0
 10
40.505538
 20
9.244462
 30
0.0
 10
43.494462
 20
9.244462
 30
0.0
  0
LWPOLYLINE
  5
123
100
AcDbEntity
  8
Layer_1
 62
7
100
AcDbPolyline
 90
9
 70
0
 10
47.244462
 20
9.244462
 30
0.0
 10
47.244462
 20
8.184232
 30
0.0
 10
45.750000
 20
8.184232
 30
0.0
 10
45.750000
 20
8.060057
 30
0.0
 10
47.244462
 20
8.060057
 30
0.0
 10
47.244462
 20
5.005538
 30
0.0
 10
44.255538
 20
5.005538
 30
0.0
 10
44.255538
 20
9.244462
 30
0.0
 10
47.244462
 20
9.244462
 30
0.0
  0
LWPOLYLINE
  5
124
100
AcDbEntity
  8
Layer_1
 62
7
100
AcDbPolyline
 90
5
 70
0
 10
0.506792
 20
4.993208
 30
0.0
 10
25.618209
 20
4.993208
 30
0.0
 10
25.618209
 20
0.506792
 30
0.0
 10
0.506792
 20
0.506792
 30
0.0
 10
0.506792
 20
4.993208
 30
0.0
  0
LWPOLYLINE
  5
125
100
AcDbEntity
  8
Layer_1
 62
7
100
AcDbPolyline
 90
5
 70
0
 10
0.501191
 20
4.998809
 30
0.0
 10
0.623809
 20
4.998809
 30
0.0
 10
0.623809
 20
0.501191
 30
0.0
 10
0.501191
 20
0.501191
 30
0.0
 10
0.501191
 20
4.998809
 30
0.0
  0
LWPOLYLINE
  5
126
100
AcDbEntity
  8
Layer_1
 62
7
100
AcDbPolyline
 90
5
 70
0
 10
25.494192
 20
4.998809
 30
0.0
 10
25.616810
 20
4.998809
 30
0.0
 10
25.616810
 20
0.501191
 30
0.0
 10
25.494192
 20
0.501191
 30
0.0
 10
25.494192
 20
4.998809
 30
0.0
  0
LWPOLYLINE
  5
127
100
AcDbEntity
  8
Layer_1
 62
7
100
AcDbPolyline
 90
5
 70
0
 10
3.625000
 20
5.000000
 30
0.0
 10
3.750000
 20
5.000000
 30
0.0
 10
3.750000
 20
0.500000
 30
0.0
 10
3.625000
 20
0.500000
 30
0.0
 10
3.625000
 20
5.000000
 30
0.0
  0
LWPOLYLINE
  5
128
100
AcDbEntity
  8
Layer_1
 62
7
100
AcDbPolyline
 90
5
 70
0
 10
6.750000
 20
5.000000
 30
0.0
 10
6.875000
 20
5.000000
 30
0.0
 10
6.875000
 20
0.500000
 30
0.0
 10
6.750000
 20
0.500000
 30
0.0
 10
6.750000
 20
5.000000
 30
0.0
  0
LWPOLYLINE
  5
129
100
AcDbEntity
  8
Layer_1
 62
7
100
AcDbPolyline
 90
5
 70
0
 10
9.875000
 20
5.000000
 30
0.0
 10
10.000000
 20
5.000000
 30
0.0
 10
10.000000
 20
0.500000
 30
0.0
 10
9.875000
 20
0.500000
 30
0.0
 10
9.875000
 20
5.000000
 30
0.0
  0
LWPOLYLINE
  5
12a
100
AcDbEntity
  8
Layer_1
 62
7
100
AcDbPolyline
 90
5
 70
0
 10
13.000000
 20
5.000000
 30
0.0
 10
13.125000
 20
5.000000
 30
0.0
 10
13.125000
 20
0.500000
 30
0.0
 10
13.000000
 20
0.500000
 30
0.0
 10
13.000000
 20
5.000000
 30
0.0
  0
LWPOLYLINE
  5
12b
100
AcDbEntity
  8
Layer_1
 62
7
100
AcDbPolyline
 90
5
 70
0
 10
16.125000
 20
5.000000
 30
0.0
 10
16.250000
 20
5.000000
 30
0.0
 10
16.250000
 20
0.500000
 30
0.0
 10
16.125000
 20
0.500000
 30
0.0
 10
16.125000
 20
5.000000
 30
0.0
  0
LWPOLYLINE
  5
12c
100
AcDbEntity
  8
Layer_1
 62
7
100
AcDbPolyline
 90
5
 70
0
 10
19.250000
 20
5.000000
 30
0.0
 10
19.375000
 20
5.000000
 30
0.0
 10
19.375000
 20
0.500000
 30
0.0
 10
19.250000
 20
0.500000
 30
0.0
 10
19.250000
 20
5.000000
 30
0.0
  0
LWPOLYLINE
  5
12d
100
AcDbEntity
  8
Layer_1
 62
7
100
AcDbPolyline
 90
5
 70
0
 10
22.375000
 20
5.000000
 30
0.0
 10
22.500000
 20
5.000000
 30
0.0
 10
22.500000
 20
0.500000
 30
0.0
 10
22.375000
 20
0.500000
 30
0.0
 10
22.375000
 20
5.000000
 30
0.0
  0
LWPOLYLINE
  5
12e
100
AcDbEntity
  8
Layer_1
 62
7
100
AcDbPolyline
 90
5
 70
0
 10
0.500000
 20
2.000000
 30
0.0
 10
25.500000
 20
2.000000
 30
0.0
 10
25.500000
 20
1.875000
 30
0.0
 10
0.500000
 20
1.875000
 30
0.0
 10
0.500000
 20
2.000000
 30
0.0
  0
SPLINE
  5
12f
100
AcDbEntity
  8
Layer_1
 62
7
100
AcDbSpline
 70
8
 71
3
 72
8
 73
4
 74
0
 40
0
 40
0
 40
0
 40
0
 40
1
 40
1
 40
1
 40
1
 10
28.625088
 20
6.316707
 30
0.0
 10
28.715216
 20
6.316707
 30
0.0
 10
28.788286
 20
6.244658
 30
0.0
 10
28.788286
 20
6.155790
 30
0.0
  0
SPLINE
  5
130
100
AcDbEntity
  8
Layer_1
 62
7
100
AcDbSpline
 70
8
 71
3
 72
8
 73
4
 74
0
 40
0
 40
0
 40
0
 40
0
 40
1
 40
1
 40
1
 40
1
 10
28.788286
 20
6.155790
 30
0.0
 10
28.788286
 20
6.066920
 30
0.0
 10
28.715216
 20
5.994870
 30
0.0
 10
28.625088
 20
5.994870
 30
0.0
  0
SPLINE
  5
131
100
AcDbEntity
  8
Layer_1
 62
7
100
AcDbSpline
 70
8
 71
3
 72
8
 73
4
 74
0
 40
0
 40
0
 40
0
 40
0
 40
1
 40
1
 40
1
 40
1
 10
28.625088
 20
5.994870
 30
0.0
 10
28.534960
 20
5.994870
 30
0.0
 10
28.461890
 20
6.066920
 30
0.0
 10
28.461890
 20
6.155790
 30
0.0
  0
SPLINE
  5
132
100
AcDbEntity
  8
Layer_1
 62
7
100
AcDbSpline
 70
8
 71
3
 72
8
 73
4
 74
0
 40
0
 40
0
 40
0
 40
0
 40
1
 40
1
 40
1
 40
1
 10
28.461890
 20
6.155790
 30
0.0
 10
28.461890
 20
6.244658
 30
0.0
 10
28.534960
 20
6.316707
 30
0.0
 10
28.625088
 20
6.316707
 30
0.0
  0
LWPOLYLINE
  5
133
100
AcDbEntity
  8
Layer_1
 62
7
100
AcDbPolyline
 90
6
 70
0
 10
26.506639
 20
9.930861
 30
0.0
 10
26.506639
 20
5.506639
 30
0.0
 10
30.743537
 20
5.506639
 30
0.0
 10
30.743537
 20
9.930861
 30
0.0
 10
26.506639
 20
9.930861
 30
0.0
 10
26.506639
 20
9.930861
 30
0.0
  0
LWPOLYLINE
  5
134
100
AcDbEntity
  8
Layer_1
 62
7
100
AcDbPolyline
 90
2
 70
0
 10
28.625088
 20
6.316707
 30
0.0
 10
28.625088
 20
6.316707
 30
0.0
  0
LWPOLYLINE
  5
135
100
AcDbEntity
  8
Layer_1
 62
7
100
AcDbPolyline
 90
5
 70
0
 10
26.500000
 20
7.000000
 30
0.0
 10
30.750000
 20
7.000000
 30
0.0
 10
30.750000
 20
6.875000
 30
0.0
 10
26.500000
 20
6.875000
 30
0.0
 10
26.500000
 20
7.000000
 30
0.0
  0
LWPOLYLINE
  5
136
100
AcDbEntity
  8
Layer_1
 62
7
100
AcDbPolyline
 90
5
 70
0
 10
29.500000
 20
9.942500
 30
0.0
 10
29.625000
 20
9.942500
 30
0.0
 10
29.625000
 20
6.875000
 30
0.0
 10
29.500000
 20
6.875000
 30
0.0
 10
29.500000
 20
9.942500
 30
0.0
  0
LWPOLYLINE
  5
137
100
AcDbEntity
  8
Layer_1
 62
7
100
AcDbPolyline
 90
5
 70
0
 10
26.507070
 20
4.930861
 30
0.0
 10
30.743361
 20
4.930861
 30
0.0
 10
30.743361
 20
0.506639
 30
0.0
 10
26.506639
 20
0.506639
 30
0.0
 10
26.507072
 20
4.930861
 30
0.0
  0
LWPOLYLINE
  5
138
100
AcDbEntity
  8
Layer_1
 62
7
100
AcDbPolyline
 90
5
 70
0
 10
26.500000
 20
2.000000
 30
0.0
 10
30.750000
 20
2.000000
 30
0.0
 10
30.750000
 20
1.875000
 30
0.0
 10
26.500000
 20
1.875000
 30
0.0
 10
26.500000
 20
2.000000
 30
0.0
  0
LWPOLYLINE
  5
139
100
AcDbEntity
  8
Layer_1
 62
7
100
AcDbPolyline
 90
5
 70
0
 10
29.500000
 20
4.942500
 30
0.0
 10
29.625000
 20
4.942500
 30
0.0
 10
29.625000
 20
1.875000
 30
0.0
 10
29.500000
 20
1.875000
 30
0.0
 10
29.500000
 20
4.942500
 30
0.0
  0
SPLINE
  5
13a
100
AcDbEntity
  8
Layer_1
 62
7
100
AcDbSpline
 70
8
 71
3
 72
8
 73
4
 74
0
 40
0
 40
0
 40
0
 40
0
 40
1
 40
1
 40
1
 40
1
 10
33.628335
 20
17.311507
 30
0.0
 10
33.765176
 20
17.311507
 30
0.0
 10
33.875974
 20
17.200585
 30
0.0
 10
33.875974
 20
17.063590
 30
0.0
  0
SPLINE
  5
13b
100
AcDbEntity
  8
Layer_1
 62
7
100
AcDbSpline
 70
8
 71
3
 72
8
 73
4
 74
0
 40
0
 40
0
 40
0
 40
0
 40
1
 40
1
 40
1
 40
1
 10
33.875974
 20
17.063590
 30
0.0
 10
33.875974
 20
16.926595
 30
0.0
 10
33.765176
 20
16.815326
 30
0.0
 10
33.628335
 20
16.815326
 30
0.0
  0
SPLINE
  5
13c
100
AcDbEntity
  8
Layer_1
 62
7
100
AcDbSpline
 70
8
 71
3
 72
8
 73
4
 74
0
 40
0
 40
0
 40
0
 40
0
 40
1
 40
1
 40
1
 40
1
 10
33.628335
 20
16.815326
 30
0.0
 10
33.491493
 20
16.815326
 30
0.0
 10
33.380696
 20
16.926595
 30
0.0
 10
33.380696
 20
17.063590
 30
0.0
  0
SPLINE
  5
13d
100
AcDbEntity
  8
Layer_1
 62
7
100
AcDbSpline
 70
8
 71
3
 72
8
 73
4
 74
0
 40
0
 40
0
 40
0
 40
0
 40
1
 40
1
 40
1
 40
1
 10
33.380696
 20
17.063590
 30
0.0
 10
33.380696
 20
17.200585
 30
0.0
 10
33.491493
 20
17.311507
 30
0.0
 10
33.628335
 20
17.311507
 30
0.0
  0
LWPOLYLINE
  5
13e
100
AcDbEntity
  8
Layer_1
 62
7
100
AcDbPolyline
 90
6
 70
0
 10
32.002382
 20
18.622620
 30
0.0
 10
32.002382
 20
15.502478
 30
0.0
 10
36.247618
 20
15.502478
 30
0.0
 10
36.247618
 20
18.622620
 30
0.0
 10
32.002382
 20
18.622620
 30
0.0
 10
32.002382
 20
18.622620
 30
0.0
  0
SPLINE
  5
13f
100
AcDbEntity
  8
Layer_1
 62
7
100
AcDbSpline
 70
8
 71
3
 72
8
 73
4
 74
0
 40
0
 40
0
 40
0
 40
0
 40
1
 40
1
 40
1
 40
1
 10
35.635805
 20
17.311507
 30
0.0
 10
35.772646
 20
17.311507
 30
0.0
 10
35.883444
 20
17.200585
 30
0.0
 10
35.883444
 20
17.063590
 30
0.0
  0
SPLINE
  5
140
100
AcDbEntity
  8
Layer_1
 62
7
100
AcDbSpline
 70
8
 71
3
 72
8
 73
4
 74
0
 40
0
 40
0
 40
0
 40
0
 40
1
 40
1
 40
1
 40
1
 10
35.883444
 20
17.063590
 30
0.0
 10
35.883444
 20
16.926595
 30
0.0
 10
35.772646
 20
16.815326
 30
0.0
 10
35.635805
 20
16.815326
 30
0.0
  0
SPLINE
  5
141
100
AcDbEntity
  8
Layer_1
 62
7
100
AcDbSpline
 70
8
 71
3
 72
8
 73
4
 74
0
 40
0
 40
0
 40
0
 40
0
 40
1
 40
1
 40
1
 40
1
 10
35.635805
 20
16.815326
 30
0.0
 10
35.498963
 20
16.815326
 30
0.0
 10
35.388166
 20
16.926595
 30
0.0
 10
35.388166
 20
17.063590
 30
0.0
  0
SPLINE
  5
142
100
AcDbEntity
  8
Layer_1
 62
7
100
AcDbSpline
 70
8
 71
3
 72
8
 73
4
 74
0
 40
0
 40
0
 40
0
 40
0
 40
1
 40
1
 40
1
 40
1
 10
35.388166
 20
17.063590
 30
0.0
 10
35.388166
 20
17.200585
 30
0.0
 10
35.498963
 20
17.311507
 30
0.0
 10
35.635805
 20
17.311507
 30
0.0
  0
LWPOLYLINE
  5
143
100
AcDbEntity
  8
Layer_1
 62
7
100
AcDbPolyline
 90
2
 70
0
 10
33.628335
 20
17.311507
 30
0.0
 10
33.628335
 20
17.311507
 30
0.0
  0
LWPOLYLINE
  5
144
100
AcDbEntity
  8
Layer_1
 62
7
100
AcDbPolyline
 90
2
 70
0
 10
35.635805
 20
17.311507
 30
0.0
 10
35.635805
 20
17.311507
 30
0.0
  0
LWPOLYLINE
  5
145
100
AcDbEntity
  8
Layer_1
 62
7
100
AcDbPolyline
 90
5
 70
0
 10
34.999999
 20
18.625000
 30
0.0
 10
35.124999
 20
18.625000
 30
0.0
 10
35.124999
 20
15.500000
 30
0.0
 10
34.999999
 20
15.500000
 30
0.0
 10
34.999999
 20
18.625000
 30
0.0
  0
SPLINE
  5
146
100
AcDbEntity
  8
Layer_1
 62
7
100
AcDbSpline
 70
8
 71
3
 72
8
 73
4
 74
0
 40
0
 40
0
 40
0
 40
0
 40
1
 40
1
 40
1
 40
1
 10
28.628335
 20
12.811508
 30
0.0
 10
28.765176
 20
12.811508
 30
0.0
 10
28.875974
 20
12.700586
 30
0.0
 10
28.875974
 20
12.563591
 30
0.0
  0
SPLINE
  5
147
100
AcDbEntity
  8
Layer_1
 62
7
100
AcDbSpline
 70
8
 71
3
 72
8
 73
4
 74
0
 40
0
 40
0
 40
0
 40
0
 40
1
 40
1
 40
1
 40
1
 10
28.875974
 20
12.563591
 30
0.0
 10
28.875974
 20
12.426596
 30
0.0
 10
28.765176
 20
12.315327
 30
0.0
 10
28.628335
 20
12.315327
 30
0.0
  0
SPLINE
  5
148
100
AcDbEntity
  8
Layer_1
 62
7
100
AcDbSpline
 70
8
 71
3
 72
8
 73
4
 74
0
 40
0
 40
0
 40
0
 40
0
 40
1
 40
1
 40
1
 40
1
 10
28.628335
 20
12.315327
 30
0.0
 10
28.491493
 20
12.315327
 30
0.0
 10
28.380696
 20
12.426596
 30
0.0
 10
28.380696
 20
12.563591
 30
0.0
  0
SPLINE
  5
149
100
AcDbEntity
  8
Layer_1
 62
7
100
AcDbSpline
 70
8
 71
3
 72
8
 73
4
 74
0
 40
0
 40
0
 40
0
 40
0
 40
1
 40
1
 40
1
 40
1
 10
28.380696
 20
12.563591
 30
0.0
 10
28.380696
 20
12.700586
 30
0.0
 10
28.491493
 20
12.811508
 30
0.0
 10
28.628335
 20
12.811508
 30
0.0
  0
LWPOLYLINE
  5
14a
100
AcDbEntity
  8
Layer_1
 62
7
100
AcDbPolyline
 90
6
 70
0
 10
27.002382
 20
14.122620
 30
0.0
 10
27.002382
 20
11.002478
 30
0.0
 10
31.247618
 20
11.002478
 30
0.0
 10
31.247618
 20
14.122620
 30
0.0
 10
27.002382
 20
14.122620
 30
0.0
 10
27.002382
 20
14.122620
 30
0.0
  0
SPLINE
  5
14b
100
AcDbEntity
  8
Layer_1
 62
7
100
AcDbSpline
 70
8
 71
3
 72
8
 73
4
 74
0
 40
0
 40
0
 40
0
 40
0
 40
1
 40
1
 40
1
 40
1
 10
30.635805
 20
12.811508
 30
0.0
 10
30.772646
 20
12.811508
 30
0.0
 10
30.883444
 20
12.700586
 30
0.0
 10
30.883444
 20
12.563591
 30
0.0
  0
SPLINE
  5
14c
100
AcDbEntity
  8
Layer_1
 62
7
100
AcDbSpline
 70
8
 71
3
 72
8
 73
4
 74
0
 40
0
 40
0
 40
0
 40
0
 40
1
 40
1
 40
1
 40
1
 10
30.883444
 20
12.563591
 30
0.0
 10
30.883444
 20
12.426596
 30
0.0
 10
30.772646
 20
12.315327
 30
0.0
 10
30.635805
 20
12.315327
 30
0.0
  0
SPLINE
  5
14d
100
AcDbEntity
  8
Layer_1
 62
7
100
AcDbSpline
 70
8
 71
3
 72
8
 73
4
 74
0
 40
0
 40
0
 40
0
 40
0
 40
1
 40
1
 40
1
 40
1
 10
30.635805
 20
12.315327
 30
0.0
 10
30.498963
 20
12.315327
 30
0.0
 10
30.388166
 20
12.426596
 30
0.0
 10
30.388166
 20
12.563591
 30
0.0
  0
SPLINE
  5
14e
100
AcDbEntity
  8
Layer_1
 62
7
100
AcDbSpline
 70
8
 71
3
 72
8
 73
4
 74
0
 40
0
 40
0
 40
0
 40
0
 40
1
 40
1
 40
1
 40
1
 10
30.388166
 20
12.563591
 30
0.0
 10
30.388166
 20
12.700586
 30
0.0
 10
30.498963
 20
12.811508
 30
0.0
 10
30.635805
 20
12.811508
 30
0.0
  0
LWPOLYLINE
  5
14f
100
AcDbEntity
  8
Layer_1
 62
7
100
AcDbPolyline
 90
2
 70
0
 10
28.628335
 20
12.811508
 30
0.0
 10
28.628335
 20
12.811508
 30
0.0
  0
LWPOLYLINE
  5
150
100
AcDbEntity
  8
Layer_1
 62
7
100
AcDbPolyline
 90
2
 70
0
 10
30.635805
 20
12.811508
 30
0.0
 10
30.635805
 20
12.811508
 30
0.0
  0
LWPOLYLINE
  5
151
100
AcDbEntity
  8
Layer_1
 62
7
100
AcDbPolyline
 90
5
 70
0
 10
29.999999
 20
14.125000
 30
0.0
 10
30.124999
 20
14.125000
 30
0.0
 10
30.124999
 20
11.000000
 30
0.0
 10
29.999999
 20
11.000000
 30
0.0
 10
29.999999
 20
14.125000
 30
0.0
  0
SPLINE
  5
152
100
AcDbEntity
  8
Layer_1
 62
7
100
AcDbSpline
 70
8
 71
3
 72
8
 73
4
 74
0
 40
0
 40
0
 40
0
 40
0
 40
1
 40
1
 40
1
 40
1
 10
33.628335
 20
12.811508
 30
0.0
 10
33.765176
 20
12.811508
 30
0.0
 10
33.875974
 20
12.700586
 30
0.0
 10
33.875974
 20
12.563591
 30
0.0
  0
SPLINE
  5
153
100
AcDbEntity
  8
Layer_1
 62
7
100
AcDbSpline
 70
8
 71
3
 72
8
 73
4
 74
0
 40
0
 40
0
 40
0
 40
0
 40
1
 40
1
 40
1
 40
1
 10
33.875974
 20
12.563591
 30
0.0
 10
33.875974
 20
12.426596
 30
0.0
 10
33.765176
 20
12.315327
 30
0.0
 10
33.628335
 20
12.315327
 30
0.0
  0
SPLINE
  5
154
100
AcDbEntity
  8
Layer_1
 62
7
100
AcDbSpline
 70
8
 71
3
 72
8
 73
4
 74
0
 40
0
 40
0
 40
0
 40
0
 40
1
 40
1
 40
1
 40
1
 10
33.628335
 20
12.315327
 30
0.0
 10
33.491493
 20
12.315327
 30
0.0
 10
33.380696
 20
12.426596
 30
0.0
 10
33.380696
 20
12.563591
 30
0.0
  0
SPLINE
  5
155
100
AcDbEntity
  8
Layer_1
 62
7
100
AcDbSpline
 70
8
 71
3
 72
8
 73
4
 74
0
 40
0
 40
0
 40
0
 40
0
 40
1
 40
1
 40
1
 40
1
 10
33.380696
 20
12.563591
 30
0.0
 10
33.380696
 20
12.700586
 30
0.0
 10
33.491493
 20
12.811508
 30
0.0
 10
33.628335
 20
12.811508
 30
0.0
  0
LWPOLYLINE
  5
156
100
AcDbEntity
  8
Layer_1
 62
7
100
AcDbPolyline
 90
6
 70
0
 10
32.002382
 20
14.122620
 30
0.0
 10
32.002382
 20
11.002478
 30
0.0
 10
36.247618
 20
11.002478
 30
0.0
 10
36.247618
 20
14.122620
 30
0.0
 10
32.002382
 20
14.122620
 30
0.0
 10
32.002382
 20
14.122620
 30
0.0
  0
SPLINE
  5
157
100
AcDbEntity
  8
Layer_1
 62
7
100
AcDbSpline
 70
8
 71
3
 72
8
 73
4
 74
0
 40
0
 40
0
 40
0
 40
0
 40
1
 40
1
 40
1
 40
1
 10
35.635805
 20
12.811508
 30
0.0
 10
35.772646
 20
12.811508
 30
0.0
 10
35.883444
 20
12.700586
 30
0.0
 10
35.883444
 20
12.563591
 30
0.0
  0
SPLINE
  5
158
100
AcDbEntity
  8
Layer_1
 62
7
100
AcDbSpline
 70
8
 71
3
 72
8
 73
4
 74
0
 40
0
 40
0
 40
0
 40
0
 40
1
 40
1
 40
1
 40
1
 10
35.883444
 20
12.563591
 30
0.0
 10
35.883444
 20
12.426596
 30
0.0
 10
35.772646
 20
12.315327
 30
0.0
 10
35.635805
 20
12.315327
 30
0.0
  0
SPLINE
  5
159
100
AcDbEntity
  8
Layer_1
 62
7
100
AcDbSpline
 70
8
 71
3
 72
8
 73
4
 74
0
 40
0
 40
0
 40
0
 40
0
 40
1
 40
1
 40
1
 40
1
 10
35.635805
 20
12.315327
 30
0.0
 10
35.498963
 20
12.315327
 30
0.0
 10
35.388166
 20
12.426596
 30
0.0
 10
35.388166
 20
12.563591
 30
0.0
  0
SPLINE
  5
15a
100
AcDbEntity
  8
Layer_1
 62
7
100
AcDbSpline
 70
8
 71
3
 72
8
 73
4
 74
0
 40
0
 40
0
 40
0
 40
0
 40
1
 40
1
 40
1
 40
1
 10
35.388166
 20
12.563591
 30
0.0
 10
35.388166
 20
12.700586
 30
0.0
 10
35.498963
 20
12.811508
 30
0.0
 10
35.635805
 20
12.811508
 30
0.0
  0
LWPOLYLINE
  5
15b
100
AcDbEntity
  8
Layer_1
 62
7
100
AcDbPolyline
 90
2
 70
0
 10
33.628335
 20
12.811508
 30
0.0
 10
33.628335
 20
12.811508
 30
0.0
  0
LWPOLYLINE
  5
15c
100
AcDbEntity
  8
Layer_1
 62
7
100
AcDbPolyline
 90
2
 70
0
 10
35.635805
 20
12.811508
 30
0.0
 10
35.635805
 20
12.811508
 30
0.0
  0
LWPOLYLINE
  5
15d
100
AcDbEntity
  8
Layer_1
 62
7
100
AcDbPolyline
 90
5
 70
0
 10
34.999999
 20
14.125000
 30
0.0
 10
35.124999
 20
14.125000
 30
0.0
 10
35.124999
 20
11.000000
 30
0.0
 10
34.999999
 20
11.000000
 30
0.0
 10
34.999999
 20
14.125000
 30
0.0
  0
SPLINE
  5
15e
100
AcDbEntity
  8
Layer_1
 62
7
100
AcDbSpline
 70
8
 71
3
 72
8
 73
4
 74
0
 40
0
 40
0
 40
0
 40
0
 40
1
 40
1
 40
1
 40
1
 10
33.628335
 20
2.811508
 30
0.0
 10
33.765176
 20
2.811508
 30
0.0
 10
33.875974
 20
2.700586
 30
0.0
 10
33.875974
 20
2.563591
 30
0.0
  0
SPLINE
  5
15f
100
AcDbEntity
  8
Layer_1
 62
7
100
AcDbSpline
 70
8
 71
3
 72
8
 73
4
 74
0
 40
0
 40
0
 40
0
 40
0
 40
1
 40
1
 40
1
 40
1
 10
33.875974
 20
2.563591
 30
0.0
 10
33.875974
 20
2.426596
 30
0.0
 10
33.765176
 20
2.315327
 30
0.0
 10
33.628335
 20
2.315327
 30
0.0
  0
SPLINE
  5
160
100
AcDbEntity
  8
Layer_1
 62
7
100
AcDbSpline
 70
8
 71
3
 72
8
 73
4
 74
0
 40
0
 40
0
 40
0
 40
0
 40
1
 40
1
 40
1
 40
1
 10
33.628335
 20
2.315327
 30
0.0
 10
33.491493
 20
2.315327
 30
0.0
 10
33.380696
 20
2.426596
 30
0.0
 10
33.380696
 20
2.563591
 30
0.0
  0
SPLINE
  5
161
100
AcDbEntity
  8
Layer_1
 62
7
100
AcDbSpline
 70
8
 71
3
 72
8
 73
4
 74
0
 40
0
 40
0
 40
0
 40
0
 40
1
 40
1
 40
1
 40
1
 10
33.380696
 20
2.563591
 30
0.0
 10
33.380696
 20
2.700586
 30
0.0
 10
33.491493
 20
2.811508
 30
0.0
 10
33.628335
 20
2.811508
 30
0.0
  0
LWPOLYLINE
  5
162
100
AcDbEntity
  8
Layer_1
 62
7
100
AcDbPolyline
 90
6
 70
0
 10
32.002382
 20
4.122620
 30
0.0
 10
32.002382
 20
1.002478
 30
0.0
 10
36.247618
 20
1.002478
 30
0.0
 10
36.247618
 20
4.122620
 30
0.0
 10
32.002382
 20
4.122620
 30
0.0
 10
32.002382
 20
4.122620
 30
0.0
  0
SPLINE
  5
163
100
AcDbEntity
  8
Layer_1
 62
7
100
AcDbSpline
 70
8
 71
3
 72
8
 73
4
 74
0
 40
0
 40
0
 40
0
 40
0
 40
1
 40
1
 40
1
 40
1
 10
35.635805
 20
2.811508
 30
0.0
 10
35.772646
 20
2.811508
 30
0.0
 10
35.883444
 20
2.700586
 30
0.0
 10
35.883444
 20
2.563591
 30
0.0
  0
SPLINE
  5
164
100
AcDbEntity
  8
Layer_1
 62
7
100
AcDbSpline
 70
8
 71
3
 72
8
 73
4
 74
0
 40
0
 40
0
 40
0
 40
0
 40
1
 40
1
 40
1
 40
1
 10
35.883444
 20
2.563591
 30
0.0
 10
35.883444
 20
2.426596
 30
0.0
 10
35.772646
 20
2.315327
 30
0.0
 10
35.635805
 20
2.315327
 30
0.0
  0
SPLINE
  5
165
100
AcDbEntity
  8
Layer_1
 62
7
100
AcDbSpline
 70
8
 71
3
 72
8
 73
4
 74
0
 40
0
 40
0
 40
0
 40
0
 40
1
 40
1
 40
1
 40
1
 10
35.635805
 20
2.315327
 30
0.0
 10
35.498963
 20
2.315327
 30
0.0
 10
35.388166
 20
2.426596
 30
0.0
 10
35.388166
 20
2.563591
 30
0.0
  0
SPLINE
  5
166
100
AcDbEntity
  8
Layer_1
 62
7
100
AcDbSpline
 70
8
 71
3
 72
8
 73
4
 74
0
 40
0
 40
0
 40
0
 40
0
 40
1
 40
1
 40
1
 40
1
 10
35.388166
 20
2.563591
 30
0.0
 10
35.388166
 20
2.700586
 30
0.0
 10
35.498963
 20
2.811508
 30
0.0
 10
35.635805
 20
2.811508
 30
0.0
  0
LWPOLYLINE
  5
167
100
AcDbEntity
  8
Layer_1
 62
7
100
AcDbPolyline
 90
2
 70
0
 10
33.628335
 20
2.811508
 30
0.0
 10
33.628335
 20
2.811508
 30
0.0
  0
LWPOLYLINE
  5
168
100
AcDbEntity
  8
Layer_1
 62
7
100
AcDbPolyline
 90
2
 70
0
 10
35.635805
 20
2.811508
 30
0.0
 10
35.635805
 20
2.811508
 30
0.0
  0
LWPOLYLINE
  5
169
100
AcDbEntity
  8
Layer_1
 62
7
100
AcDbPolyline
 90
5
 70
0
 10
34.999999
 20
4.125000
 30
0.0
 10
35.124999
 20
4.125000
 30
0.0
 10
35.124999
 20
1.000000
 30
0.0
 10
34.999999
 20
1.000000
 30
0.0
 10
34.999999
 20
4.125000
 30
0.0
  0
SPLINE
  5
16a
100
AcDbEntity
  8
Layer_1
 62
7
100
AcDbSpline
 70
8
 71
3
 72
8
 73
4
 74
0
 40
0
 40
0
 40
0
 40
0
 40
1
 40
1
 40
1
 40
1
 10
38.628335
 20
2.811508
 30
0.0
 10
38.765176
 20
2.811508
 30
0.0
 10
38.875974
 20
2.700586
 30
0.0
 10
38.875974
 20
2.563591
 30
0.0
  0
SPLINE
  5
16b
100
AcDbEntity
  8
Layer_1
 62
7
100
AcDbSpline
 70
8
 71
3
 72
8
 73
4
 74
0
 40
0
 40
0
 40
0
 40
0
 40
1
 40
1
 40
1
 40
1
 10
38.875974
 20
2.563591
 30
0.0
 10
38.875974
 20
2.426596
 30
0.0
 10
38.765176
 20
2.315327
 30
0.0
 10
38.628335
 20
2.315327
 30
0.0
  0
SPLINE
  5
16c
100
AcDbEntity
  8
Layer_1
 62
7
100
AcDbSpline
 70
8
 71
3
 72
8
 73
4
 74
0
 40
0
 40
0
 40
0
 40
0
 40
1
 40
1
 40
1
 40
1
 10
38.628335
 20
2.315327
 30
0.0
 10
38.491493
 20
2.315327
 30
0.0
 10
38.380696
 20
2.426596
 30
0.0
 10
38.380696
 20
2.563591
 30
0.0
  0
SPLINE
  5
16d
100
AcDbEntity
  8
Layer_1
 62
7
100
AcDbSpline
 70
8
 71
3
 72
8
 73
4
 74
0
 40
0
 40
0
 40
0
 40
0
 40
1
 40
1
 40
1
 40
1
 10
38.380696
 20
2.563591
 30
0.0
 10
38.380696
 20
2.700586
 30
0.0
 10
38.491493
 20
2.811508
 30
0.0
 10
38.628335
 20
2.811508
 30
0.0
  0
LWPOLYLINE
  5
16e
100
AcDbEntity
  8
Layer_1
 62
7
100
AcDbPolyline
 90
6
 70
0
 10
37.002382
 20
4.122620
 30
0.0
 10
37.002382
 20
1.002478
 30
0.0
 10
41.247618
 20
1.002478
 30
0.0
 10
41.247618
 20
4.122620
 30
0.0
 10
37.002382
 20
4.122620
 30
0.0
 10
37.002382
 20
4.122620
 30
0.0
  0
SPLINE
  5
16f
100
AcDbEntity
  8
Layer_1
 62
7
100
AcDbSpline
 70
8
 71
3
 72
8
 73
4
 74
0
 40
0
 40
0
 40
0
 40
0
 40
1
 40
1
 40
1
 40
1
 10
40.635805
 20
2.811508
 30
0.0
 10
40.772646
 20
2.811508
 30
0.0
 10
40.883444
 20
2.700586
 30
0.0
 10
40.883444
 20
2.563591
 30
0.0
  0
SPLINE
  5
170
100
AcDbEntity
  8
Layer_1
 62
7
100
AcDbSpline
 70
8
 71
3
 72
8
 73
4
 74
0
 40
0
 40
0
 40
0
 40
0
 40
1
 40
1
 40
1
 40
1
 10
40.883444
 20
2.563591
 30
0.0
 10
40.883444
 20
2.426596
 30
0.0
 10
40.772646
 20
2.315327
 30
0.0
 10
40.635805
 20
2.315327
 30
0.0
  0
SPLINE
  5
171
100
AcDbEntity
  8
Layer_1
 62
7
100
AcDbSpline
 70
8
 71
3
 72
8
 73
4
 74
0
 40
0
 40
0
 40
0
 40
0
 40
1
 40
1
 40
1
 40
1
 10
40.635805
 20
2.315327
 30
0.0
 10
40.498963
 20
2.315327
 30
0.0
 10
40.388166
 20
2.426596
 30
0.0
 10
40.388166
 20
2.563591
 30
0.0
  0
SPLINE
  5
172
100
AcDbEntity
  8
Layer_1
 62
7
100
AcDbSpline
 70
8
 71
3
 72
8
 73
4
 74
0
 40
0
 40
0
 40
0
 40
0
 40
1
 40
1
 40
1
 40
1
 10
40.388166
 20
2.563591
 30
0.0
 10
40.388166
 20
2.700586
 30
0.0
 10
40.498963
 20
2.811508
 30
0.0
 10
40.635805
 20
2.811508
 30
0.0
  0
LWPOLYLINE
  5
173
100
AcDbEntity
  8
Layer_1
 62
7
100
AcDbPolyline
 90
2
 70
0
 10
38.628335
 20
2.811508
 30
0.0
 10
38.628335
 20
2.811508
 30
0.0
  0
LWPOLYLINE
  5
174
100
AcDbEntity
  8
Layer_1
 62
7
100
AcDbPolyline
 90
2
 70
0
 10
40.635805
 20
2.811508
 30
0.0
 10
40.635805
 20
2.811508
 30
0.0
  0
LWPOLYLINE
  5
175
100
AcDbEntity
  8
Layer_1
 62
7
100
AcDbPolyline
 90
5
 70
0
 10
39.999999
 20
4.125000
 30
0.0
 10
40.124999
 20
4.125000
 30
0.0
 10
40.124999
 20
1.000000
 30
0.0
 10
39.999999
 20
1.000000
 30
0.0
 10
39.999999
 20
4.125000
 30
0.0
  0
SPLINE
  5
176
100
AcDbEntity
  8
Layer_1
 62
7
100
AcDbSpline
 70
8
 71
3
 72
8
 73
4
 74
0
 40
0
 40
0
 40
0
 40
0
 40
1
 40
1
 40
1
 40
1
 10
33.811508
 20
8.121664
 30
0.0
 10
33.811508
 20
7.984823
 30
0.0
 10
33.700586
 20
7.874026
 30
0.0
 10
33.563591
 20
7.874026
 30
0.0
  0
SPLINE
  5
177
100
AcDbEntity
  8
Layer_1
 62
7
100
AcDbSpline
 70
8
 71
3
 72
8
 73
4
 74
0
 40
0
 40
0
 40
0
 40
0
 40
1
 40
1
 40
1
 40
1
 10
33.563591
 20
7.874026
 30
0.0
 10
33.426596
 20
7.874026
 30
0.0
 10
33.315327
 20
7.984823
 30
0.0
 10
33.315327
 20
8.121664
 30
0.0
  0
SPLINE
  5
178
100
AcDbEntity
  8
Layer_1
 62
7
100
AcDbSpline
 70
8
 71
3
 72
8
 73
4
 74
0
 40
0
 40
0
 40
0
 40
0
 40
1
 40
1
 40
1
 40
1
 10
33.315327
 20
8.121664
 30
0.0
 10
33.315327
 20
8.258507
 30
0.0
 10
33.426596
 20
8.369303
 30
0.0
 10
33.563591
 20
8.369303
 30
0.0
  0
SPLINE
  5
179
100
AcDbEntity
  8
Layer_1
 62
7
100
AcDbSpline
 70
8
 71
3
 72
8
 73
4
 74
0
 40
0
 40
0
 40
0
 40
0
 40
1
 40
1
 40
1
 40
1
 10
33.563591
 20
8.369303
 30
0.0
 10
33.700586
 20
8.369303
 30
0.0
 10
33.811508
 20
8.258507
 30
0.0
 10
33.811508
 20
8.121664
 30
0.0
  0
LWPOLYLINE
  5
17a
100
AcDbEntity
  8
Layer_1
 62
7
100
AcDbPolyline
 90
6
 70
0
 10
35.122620
 20
9.747618
 30
0.0
 10
32.002478
 20
9.747618
 30
0.0
 10
32.002478
 20
5.502381
 30
0.0
 10
35.122620
 20
5.502381
 30
0.0
 10
35.122620
 20
9.747618
 30
0.0
 10
35.122620
 20
9.747618
 30
0.0
  0
SPLINE
  5
17b
100
AcDbEntity
  8
Layer_1
 62
7
100
AcDbSpline
 70
8
 71
3
 72
8
 73
4
 74
0
 40
0
 40
0
 40
0
 40
0
 40
1
 40
1
 40
1
 40
1
 10
33.811508
 20
6.114194
 30
0.0
 10
33.811508
 20
5.977353
 30
0.0
 10
33.700586
 20
5.866556
 30
0.0
 10
33.563591
 20
5.866556
 30
0.0
  0
SPLINE
  5
17c
100
AcDbEntity
  8
Layer_1
 62
7
100
AcDbSpline
 70
8
 71
3
 72
8
 73
4
 74
0
 40
0
 40
0
 40
0
 40
0
 40
1
 40
1
 40
1
 40
1
 10
33.563591
 20
5.866556
 30
0.0
 10
33.426596
 20
5.866556
 30
0.0
 10
33.315327
 20
5.977353
 30
0.0
 10
33.315327
 20
6.114194
 30
0.0
  0
SPLINE
  5
17d
100
AcDbEntity
  8
Layer_1
 62
7
100
AcDbSpline
 70
8
 71
3
 72
8
 73
4
 74
0
 40
0
 40
0
 40
0
 40
0
 40
1
 40
1
 40
1
 40
1
 10
33.315327
 20
6.114194
 30
0.0
 10
33.315327
 20
6.251037
 30
0.0
 10
33.426596
 20
6.361833
 30
0.0
 10
33.563591
 20
6.361833
 30
0.0
  0
SPLINE
  5
17e
100
AcDbEntity
  8
Layer_1
 62
7
100
AcDbSpline
 70
8
 71
3
 72
8
 73
4
 74
0
 40
0
 40
0
 40
0
 40
0
 40
1
 40
1
 40
1
 40
1
 10
33.563591
 20
6.361833
 30
0.0
 10
33.700586
 20
6.361833
 30
0.0
 10
33.811508
 20
6.251037
 30
0.0
 10
33.811508
 20
6.114194
 30
0.0
  0
LWPOLYLINE
  5
17f
100
AcDbEntity
  8
Layer_1
 62
7
100
AcDbPolyline
 90
2
 70
0
 10
33.811508
 20
8.121664
 30
0.0
 10
33.811508
 20
8.121664
 30
0.0
  0
LWPOLYLINE
  5
180
100
AcDbEntity
  8
Layer_1
 62
7
100
AcDbPolyline
 90
2
 70
0
 10
33.811508
 20
6.114194
 30
0.0
 10
33.811508
 20
6.114194
 30
0.0
  0
LWPOLYLINE
  5
181
100
AcDbEntity
  8
Layer_1
 62
7
100
AcDbPolyline
 90
5
 70
0
 10
35.125000
 20
6.750000
 30
0.0
 10
35.125000
 20
6.625000
 30
0.0
 10
32.000000
 20
6.625000
 30
0.0
 10
32.000000
 20
6.750000
 30
0.0
 10
35.125000
 20
6.750000
 30
0.0
  0
SPLINE
  5
182
100
AcDbEntity
  8
Layer_1
 62
7
100
AcDbSpline
 70
8
 71
3
 72
8
 73
4
 74
0
 40
0
 40
0
 40
0
 40
0
 40
1
 40
1
 40
1
 40
1
 10
37.811508
 20
8.121664
 30
0.0
 10
37.811508
 20
7.984823
 30
0.0
 10
37.700586
 20
7.874026
 30
0.0
 10
37.563591
 20
7.874026
 30
0.0
  0
SPLINE
  5
183
100
AcDbEntity
  8
Layer_1
 62
7
100
AcDbSpline
 70
8
 71
3
 72
8
 73
4
 74
0
 40
0
 40
0
 40
0
 40
0
 40
1
 40
1
 40
1
 40
1
 10
37.563591
 20
7.874026
 30
0.0
 10
37.426596
 20
7.874026
 30
0.0
 10
37.315327
 20
7.984823
 30
0.0
 10
37.315327
 20
8.121664
 30
0.0
  0
SPLINE
  5
184
100
AcDbEntity
  8
Layer_1
 62
7
100
AcDbSpline
 70
8
 71
3
 72
8
 73
4
 74
0
 40
0
 40
0
 40
0
 40
0
 40
1
 40
1
 40
1
 40
1
 10
37.315327
 20
8.121664
 30
0.0
 10
37.315327
 20
8.258507
 30
0.0
 10
37.426596
 20
8.369303
 30
0.0
 10
37.563591
 20
8.369303
 30
0.0
  0
SPLINE
  5
185
100
AcDbEntity
  8
Layer_1
 62
7
100
AcDbSpline
 70
8
 71
3
 72
8
 73
4
 74
0
 40
0
 40
0
 40
0
 40
0
 40
1
 40
1
 40
1
 40
1
 10
37.563591
 20
8.369303
 30
0.0
 10
37.700586
 20
8.369303
 30
0.0
 10
37.811508
 20
8.258507
 30
0.0
 10
37.811508
 20
8.121664
 30
0.0
  0
LWPOLYLINE
  5
186
100
AcDbEntity
  8
Layer_1
 62
7
100
AcDbPolyline
 90
6
 70
0
 10
39.122620
 20
9.747618
 30
0.0
 10
36.002478
 20
9.747618
 30
0.0
 10
36.002478
 20
5.502381
 30
0.0
 10
39.122620
 20
5.502381
 30
0.0
 10
39.122620
 20
9.747618
 30
0.0
 10
39.122620
 20
9.747618
 30
0.0
  0
SPLINE
  5
187
100
AcDbEntity
  8
Layer_1
 62
7
100
AcDbSpline
 70
8
 71
3
 72
8
 73
4
 74
0
 40
0
 40
0
 40
0
 40
0
 40
1
 40
1
 40
1
 40
1
 10
37.811508
 20
6.114194
 30
0.0
 10
37.811508
 20
5.977353
 30
0.0
 10
37.700586
 20
5.866556
 30
0.0
 10
37.563591
 20
5.866556
 30
0.0
  0
SPLINE
  5
188
100
AcDbEntity
  8
Layer_1
 62
7
100
AcDbSpline
 70
8
 71
3
 72
8
 73
4
 74
0
 40
0
 40
0
 40
0
 40
0
 40
1
 40
1
 40
1
 40
1
 10
37.563591
 20
5.866556
 30
0.0
 10
37.426596
 20
5.866556
 30
0.0
 10
37.315327
 20
5.977353
 30
0.0
 10
37.315327
 20
6.114194
 30
0.0
  0
SPLINE
  5
189
100
AcDbEntity
  8
Layer_1
 62
7
100
AcDbSpline
 70
8
 71
3
 72
8
 73
4
 74
0
 40
0
 40
0
 40
0
 40
0
 40
1
 40
1
 40
1
 40
1
 10
37.315327
 20
6.114194
 30
0.0
 10
37.315327
 20
6.251037
 30
0.0
 10
37.426596
 20
6.361833
 30
0.0
 10
37.563591
 20
6.361833
 30
0.0
  0
SPLINE
  5
18a
100
AcDbEntity
  8
Layer_1
 62
7
100
AcDbSpline
 70
8
 71
3
 72
8
 73
4
 74
0
 40
0
 40
0
 40
0
 40
0
 40
1
 40
1
 40
1
 40
1
 10
37.563591
 20
6.361833
 30
0.0
 10
37.700586
 20
6.361833
 30
0.0
 10
37.811508
 20
6.251037
 30
0.0
 10
37.811508
 20
6.114194
 30
0.0
  0
LWPOLYLINE
  5
18b
100
AcDbEntity
  8
Layer_1
 62
7
100
AcDbPolyline
 90
2
 70
0
 10
37.811508
 20
8.121664
 30
0.0
 10
37.811508
 20
8.121664
 30
0.0
  0
LWPOLYLINE
  5
18c
100
AcDbEntity
  8
Layer_1
 62
7
100
AcDbPolyline
 90
2
 70
0
 10
37.811508
 20
6.114194
 30
0.0
 10
37.811508
 20
6.114194
 30
0.0
  0
LWPOLYLINE
  5
18d
100
AcDbEntity
  8
Layer_1
 62
7
100
AcDbPolyline
 90
5
 70
0
 10
39.125000
 20
6.750000
 30
0.0
 10
39.125000
 20
6.625000
 30
0.0
 10
36.000000
 20
6.625000
 30
0.0
 10
36.000000
 20
6.750000
 30
0.0
 10
39.125000
 20
6.750000
 30
0.0
  0
ENDSEC
  0
SECTION
  2
OBJECTS
  0
DICTIONARY
  5
C
330
0
100
AcDbDictionary
  3
ACAD_GROUP
350
D
  3
ACAD_MLINESTYLE
350
17
  0
DICTIONARY
  5
D
330
C
100
AcDbDictionary
  0
DICTIONARY
  5
1A
330
C
100
AcDbDictionary
  0
DICTIONARY
  5
17
330
C
100
AcDbDictionary
  3
STANDARD
350
18
  0
DICTIONARY
  5
19
330
C
100
AcDbDictionary
  0
ENDSEC
  0
EOF
